<?xml version="1.0" encoding="utf-8"?>
<!-- Generator: Adobe Illustrator 25.0.1, SVG Export Plug-In . SVG Version: 6.00 Build 0)  -->
<svg version="1.1" id="Layer_1" xmlns="http://www.w3.org/2000/svg" xmlns:xlink="http://www.w3.org/1999/xlink" x="0px" y="0px"
	 viewBox="0 0 1000 700" style="enable-background:new 0 0 1000 700;" xml:space="preserve">
<style type="text/css">
	.st0{fill:#1D4AA3;}
	.st1{fill:#FF5588;}
	.st2{fill:#FFFFFF;}
</style>
<g>
	<g>
		<g>
			<path class="st2" d="M12.11,649.02V495.67h96.03v28.12H41.96v35.04h59.91v26.6H41.96v35.47h66.18v28.12H12.11z"/>
			<path class="st2" d="M128.04,620.04c0-4.76,0.83-8.98,2.49-12.65c1.66-3.68,3.93-6.88,6.81-9.62c2.88-2.74,6.23-4.9,10.06-6.49
				c3.82-1.59,7.97-2.74,12.44-3.46l26.17-3.89c3.03-0.43,5.12-1.33,6.27-2.7c1.15-1.37,1.73-2.99,1.73-4.87
				c0-3.75-1.48-6.99-4.43-9.73c-2.96-2.74-7.46-4.11-13.52-4.11c-6.35,0-11.21,1.73-14.6,5.19c-3.39,3.46-5.3,7.5-5.73,12.11
				l-25.52-5.41c0.43-4.18,1.73-8.36,3.89-12.54c2.16-4.18,5.12-7.93,8.87-11.25c3.75-3.31,8.36-6.02,13.84-8.11
				c5.48-2.09,11.82-3.14,19.03-3.14c8.36,0,15.5,1.12,21.41,3.35c5.91,2.24,10.71,5.19,14.38,8.87s6.34,7.97,8,12.87
				c1.66,4.9,2.49,10.02,2.49,15.36v52.34c0,2.89,0.14,5.95,0.43,9.19c0.29,3.24,0.57,5.81,0.86,7.68h-26.39
				c-0.29-1.44-0.54-3.42-0.76-5.95c-0.22-2.52-0.32-4.79-0.32-6.81c-2.74,4.18-6.67,7.86-11.79,11.03
				c-5.12,3.17-11.64,4.76-19.57,4.76c-5.62,0-10.71-0.9-15.25-2.7c-4.54-1.8-8.4-4.18-11.57-7.14c-3.17-2.95-5.59-6.34-7.24-10.16
				C128.87,628.22,128.04,624.22,128.04,620.04z M170.65,630.63c3.03,0,5.95-0.39,8.76-1.19c2.81-0.79,5.3-2.16,7.46-4.11
				c2.16-1.95,3.89-4.47,5.19-7.57c1.3-3.1,1.95-7.03,1.95-11.79v-4.76L170,604.9c-3.75,0.58-6.89,1.91-9.41,4
				c-2.53,2.09-3.78,5.23-3.78,9.41c0,3.17,1.15,6.02,3.46,8.54C162.57,629.37,166.03,630.63,170.65,630.63z"/>
			<path class="st2" d="M266.67,613.98c0.29,4.18,2.02,7.93,5.19,11.25c3.17,3.32,7.93,4.97,14.27,4.97c4.76,0,8.29-1.04,10.6-3.14
				c2.3-2.09,3.46-4.58,3.46-7.46c0-2.45-0.86-4.58-2.6-6.38c-1.73-1.8-4.69-3.14-8.87-4l-14.06-3.24
				c-10.38-2.3-17.95-6.31-22.71-12.01c-4.76-5.69-7.14-12.29-7.14-19.79c0-4.76,1.01-9.26,3.03-13.52
				c2.02-4.25,4.79-7.93,8.33-11.03c3.53-3.1,7.71-5.59,12.55-7.46c4.83-1.87,10.13-2.81,15.9-2.81c7.5,0,13.84,1.05,19.03,3.14
				c5.19,2.09,9.41,4.73,12.65,7.89c3.25,3.17,5.66,6.53,7.25,10.06c1.59,3.54,2.52,6.74,2.81,9.63l-24.01,5.41
				c-0.29-1.58-0.76-3.21-1.41-4.87c-0.65-1.66-1.7-3.21-3.14-4.65c-1.44-1.44-3.21-2.6-5.3-3.46c-2.09-0.86-4.65-1.3-7.68-1.3
				c-3.75,0-6.96,1.01-9.62,3.03c-2.67,2.02-4,4.54-4,7.57c0,2.6,0.9,4.69,2.71,6.27c1.8,1.59,4.14,2.67,7.03,3.24l15.14,3.25
				c10.52,2.16,18.42,6.2,23.68,12.11c5.26,5.91,7.89,12.76,7.89,20.55c0,4.32-0.83,8.58-2.49,12.76
				c-1.66,4.18-4.22,7.93-7.68,11.25c-3.46,3.32-7.79,5.99-12.98,8c-5.19,2.02-11.25,3.03-18.17,3.03c-8.08,0-14.85-1.15-20.33-3.46
				c-5.48-2.3-9.95-5.12-13.41-8.44c-3.46-3.31-6.02-6.88-7.68-10.71c-1.66-3.82-2.63-7.25-2.92-10.27L266.67,613.98z"/>
			<path class="st2" d="M355.35,690.98l25.09-55.37l-45.2-93h32.23l28.33,62.29l26.17-62.29h30.71l-66.83,148.37H355.35z"/>
			<path class="st2" d="M548.72,540.44c-0.43-2.16-1.19-4.51-2.27-7.03c-1.08-2.52-2.7-4.87-4.87-7.03
				c-2.16-2.16-4.94-3.96-8.33-5.41c-3.39-1.44-7.54-2.16-12.44-2.16c-3.61,0-6.89,0.54-9.84,1.62c-2.96,1.08-5.48,2.52-7.57,4.32
				c-2.09,1.8-3.71,3.86-4.87,6.16c-1.16,2.31-1.73,4.76-1.73,7.35c0,4.19,1.37,7.82,4.11,10.92c2.74,3.1,6.92,5.23,12.54,6.38
				l21.41,4.11c6.92,1.3,13.05,3.39,18.39,6.27c5.33,2.89,9.8,6.31,13.41,10.27c3.6,3.97,6.34,8.4,8.22,13.3
				c1.87,4.9,2.81,10.02,2.81,15.36c0,5.91-1.23,11.72-3.68,17.41c-2.45,5.7-6.02,10.74-10.71,15.14
				c-4.69,4.4-10.46,7.97-17.3,10.71c-6.85,2.74-14.74,4.11-23.68,4.11c-10.24,0-19.03-1.48-26.39-4.43
				c-7.35-2.95-13.52-6.74-18.49-11.36c-4.97-4.61-8.76-9.77-11.36-15.46c-2.6-5.7-4.19-11.28-4.76-16.76l27.68-7.35
				c0.29,3.75,1.19,7.35,2.7,10.81c1.51,3.46,3.64,6.53,6.38,9.19c2.74,2.67,6.13,4.8,10.16,6.38c4.04,1.59,8.79,2.38,14.28,2.38
				c8.07,0,14.24-1.76,18.49-5.3c4.25-3.53,6.38-8.04,6.38-13.52c0-4.47-1.59-8.33-4.76-11.57c-3.17-3.24-7.79-5.44-13.84-6.6
				l-21.41-4.32c-12.26-2.45-22.03-7.46-29.31-15.03c-7.28-7.57-10.92-17.19-10.92-28.87c0-6.78,1.41-13.09,4.22-18.93
				c2.81-5.84,6.67-10.92,11.57-15.25c4.9-4.32,10.6-7.71,17.09-10.16c6.49-2.45,13.34-3.68,20.55-3.68
				c9.23,0,17.12,1.26,23.68,3.78c6.56,2.52,12,5.73,16.33,9.62c4.32,3.89,7.68,8.19,10.06,12.87c2.38,4.69,4,9.19,4.87,13.52
				L548.72,540.44z"/>
			<path class="st2" d="M637.39,542.61h21.41v25.52h-21.41v44.56c0,4.62,1.04,7.82,3.13,9.63c2.09,1.8,5.23,2.7,9.41,2.7
				c1.73,0,3.46-0.07,5.19-0.22c1.73-0.14,2.95-0.36,3.68-0.65v23.79c-1.3,0.58-3.28,1.15-5.95,1.73
				c-2.67,0.57-6.09,0.87-10.27,0.87c-10.38,0-18.6-2.88-24.66-8.65c-6.06-5.77-9.09-13.84-9.09-24.22v-49.53h-19.25v-25.52H595
				c5.62,0,9.77-1.62,12.44-4.87c2.67-3.24,4-7.24,4-12v-14.92h25.96V542.61z"/>
			<path class="st2" d="M729.96,539.36c7.93,0,15.32,1.41,22.17,4.22c6.85,2.81,12.76,6.71,17.74,11.68
				c4.97,4.97,8.87,10.92,11.68,17.84c2.81,6.92,4.22,14.49,4.22,22.71c0,8.22-1.41,15.76-4.22,22.6
				c-2.81,6.85-6.71,12.8-11.68,17.84c-4.97,5.05-10.89,8.98-17.74,11.79c-6.85,2.81-14.24,4.22-22.17,4.22
				c-7.93,0-15.32-1.41-22.17-4.22c-6.85-2.81-12.76-6.74-17.74-11.79c-4.97-5.05-8.87-10.99-11.68-17.84
				c-2.81-6.85-4.22-14.38-4.22-22.6c0-8.22,1.41-15.79,4.22-22.71c2.81-6.92,6.7-12.87,11.68-17.84
				c4.97-4.97,10.89-8.87,17.74-11.68C714.63,540.77,722.02,539.36,729.96,539.36z M729.96,626.09c3.46,0,6.85-0.65,10.17-1.95
				c3.31-1.3,6.2-3.21,8.65-5.73c2.45-2.52,4.43-5.66,5.95-9.41c1.51-3.75,2.27-8.14,2.27-13.19c0-5.05-0.76-9.44-2.27-13.19
				c-1.51-3.75-3.5-6.88-5.95-9.41c-2.45-2.52-5.34-4.43-8.65-5.73c-3.32-1.3-6.71-1.95-10.17-1.95c-3.46,0-6.85,0.65-10.16,1.95
				c-3.32,1.3-6.2,3.21-8.65,5.73c-2.45,2.52-4.43,5.66-5.95,9.41c-1.51,3.75-2.27,8.15-2.27,13.19c0,5.05,0.76,9.45,2.27,13.19
				c1.51,3.75,3.49,6.89,5.95,9.41c2.45,2.53,5.33,4.43,8.65,5.73C723.11,625.44,726.5,626.09,729.96,626.09z"/>
			<path class="st2" d="M873.36,571.16c-2.89-0.57-5.77-0.86-8.65-0.86c-3.75,0-7.28,0.51-10.6,1.51c-3.32,1.01-6.2,2.67-8.65,4.97
				c-2.45,2.31-4.43,5.37-5.95,9.19c-1.51,3.82-2.27,8.62-2.27,14.38v48.66h-28.77V542.61h27.9v15.79c1.59-3.46,3.64-6.31,6.16-8.54
				c2.52-2.23,5.19-3.93,8-5.08c2.81-1.15,5.62-1.95,8.44-2.38c2.81-0.43,5.37-0.65,7.68-0.65c1.15,0,2.27,0.04,3.35,0.11
				c1.08,0.08,2.2,0.18,3.35,0.32V571.16z"/>
			<path class="st2" d="M987.99,618.52c-1.3,4.62-3.35,8.98-6.17,13.09c-2.81,4.11-6.24,7.68-10.27,10.71
				c-4.04,3.03-8.76,5.44-14.17,7.24c-5.41,1.8-11.36,2.7-17.84,2.7c-7.35,0-14.35-1.26-20.98-3.78
				c-6.64-2.52-12.47-6.23-17.52-11.14c-5.05-4.9-9.05-10.89-12-17.95c-2.96-7.06-4.43-15.07-4.43-24.01
				c0-8.51,1.44-16.22,4.32-23.14c2.88-6.92,6.74-12.79,11.57-17.63c4.83-4.83,10.42-8.58,16.76-11.25c6.34-2.67,12.9-4,19.68-4
				c16.58,0,29.49,4.9,38.72,14.71c9.23,9.81,13.84,23.29,13.84,40.45c0,2.02-0.07,3.93-0.21,5.73c-0.15,1.8-0.22,2.85-0.22,3.14
				h-76.13c0.14,3.46,0.97,6.67,2.49,9.63c1.51,2.96,3.46,5.51,5.84,7.68c2.38,2.16,5.15,3.86,8.33,5.08
				c3.17,1.23,6.56,1.84,10.17,1.84c6.77,0,12.07-1.51,15.9-4.54c3.82-3.03,6.6-6.92,8.33-11.68L987.99,618.52z M961.17,583.7
				c-0.15-2.59-0.69-5.15-1.62-7.68c-0.94-2.52-2.38-4.76-4.33-6.7c-1.95-1.95-4.4-3.53-7.35-4.76c-2.96-1.22-6.46-1.84-10.49-1.84
				c-3.75,0-7.07,0.65-9.95,1.95c-2.89,1.3-5.34,2.96-7.35,4.97c-2.02,2.02-3.57,4.26-4.65,6.71c-1.08,2.45-1.7,4.9-1.84,7.35
				H961.17z"/>
		</g>
	</g>
	<g>
		<path class="st0" d="M625.95,405.38H364.89c-36.6,0-66.21-29.61-66.21-66.21V78.11c0-36.6,29.61-66.21,66.21-66.21h261.06
			c36.6,0,66.21,29.61,66.21,66.21v261.06C692.43,375.78,662.56,405.38,625.95,405.38z"/>
		<g>
			<path class="st1" d="M621.38,274.31V146.2c0-4.31-2.42-8.61-6.19-10.77L504.3,71.38c-3.77-2.15-8.61-2.15-12.38,0L380.77,135.7
				c-3.77,2.15-6.19,6.19-6.19,10.77v128.11c0,4.31,2.42,8.61,6.19,10.77l110.89,64.06c3.77,2.15,8.61,2.15,12.38,0l110.89-64.06
				C618.96,282.92,621.38,278.89,621.38,274.31z"/>
			<path class="st2" d="M539.29,240.67l30.68-81.01c0.54-1.08,0.27-2.42-0.54-3.5c-0.81-1.08-1.88-1.61-3.23-1.61h-10.5l-0.27-0.27
				l-36.06-36.33c-0.81-0.81-1.61-1.08-2.69-1.08s-2.15,0.54-2.69,1.08l-14.26,14.26l-14.26-14.26c-1.61-1.61-4.04-1.61-5.65,0
				l-36.06,36.06l-0.27,0.27h-8.34l-9.15-36.6c0,0,0,0,0-0.27c-0.81-2.15-1.35-4.58-2.42-6.73l-6.73,4.04
				c0.54,1.35,1.08,2.96,1.88,4.84l33.91,137.53c1.88,7,3.77,14.53,11.84,18.03c-2.69,2.96-4.04,6.73-4.04,11.03
				c0,9.15,7.54,16.69,16.69,16.69c9.15,0,16.69-7.54,16.69-16.69c0-3.23-1.08-6.19-2.69-8.88h27.18c-1.61,2.69-2.69,5.65-2.69,8.88
				c0,9.15,7.54,16.69,16.69,16.69c9.15,0,16.69-7.54,16.69-16.69c0-4.31-1.61-8.34-4.58-11.3c0.27-0.54,0.27-0.81,0.27-1.35
				c0-2.15-1.88-4.04-4.04-4.04H475.5c-11.84,0-13.19-5.11-15.34-14.26l-2.96-12.11h78.59
				C537.14,243.09,538.75,242.01,539.29,240.67z M532.29,277.27c4.84,0,8.88,4.04,8.88,8.88c0,4.84-4.04,8.88-8.88,8.88
				c-4.84,0-8.88-4.04-8.88-8.88C523.41,281.04,527.18,277.27,532.29,277.27z M476.85,277.27c4.84,0,8.88,4.04,8.88,8.88
				c0,4.84-4.04,8.88-8.88,8.88c-4.84,0-8.88-4.04-8.88-8.88C467.97,281.04,472.01,277.27,476.85,277.27z M516.68,126.28
				l27.99,27.99h-23.15l-0.27-0.27l-16.15-16.15L516.68,126.28z M482.5,126.28l14.26,14.26c0,0,0,0,0,0.27c0,0,0,0,0.27,0
				l13.73,13.73h-56.25L482.5,126.28z M455.05,235.29l-18.03-73.21h123.53l-27.72,73.21H455.05z"/>
			<path class="st1" d="M423.56,110.94l-6.73,4.04c-2.69-5.92-6.46-8.07-13.73-8.07h-19.92v0.27c0,4.58-3.77,8.61-8.61,8.61
				c-4.58,0-8.61-3.77-8.61-8.61c0-4.58,3.77-8.61,8.61-8.61c0.81,0,1.61,0,2.42,0.27h25.84
				C414.68,99.1,420.33,104.21,423.56,110.94z"/>
		</g>
	</g>
</g>
</svg>
