<?xml version="1.0" encoding="utf-8"?>
<!-- Generator: Adobe Illustrator 25.0.1, SVG Export Plug-In . SVG Version: 6.00 Build 0)  -->
<svg version="1.1" id="Layer_1" xmlns="http://www.w3.org/2000/svg" xmlns:xlink="http://www.w3.org/1999/xlink" x="0px" y="0px"
	 viewBox="0 0 1000 1000" style="enable-background:new 0 0 1000 1000;" xml:space="preserve">
<style type="text/css">
	.st0{fill:#1D4AA3;}
	.st1{fill:#FF5588;}
	.st2{fill:#FFFFFF;}
</style>
<g>
	<path class="st0" d="M828.42,995H171.58C79.49,995,5,920.51,5,828.42V171.58C5,79.49,79.49,5,171.58,5h656.84
		C920.51,5,995,79.49,995,171.58v656.84C995.67,920.51,920.51,995,828.42,995z"/>
	<g>
		<path class="st1" d="M816.9,665.22V342.9c0-10.83-6.09-21.67-15.57-27.09L522.34,154.65c-9.48-5.42-21.67-5.42-31.15,0
			L211.53,316.49c-9.48,5.42-15.57,15.57-15.57,27.09V665.9c0,10.83,6.09,21.67,15.57,27.09l278.99,161.16
			c9.48,5.42,21.67,5.42,31.15,0l278.99-161.16C810.81,686.89,816.9,676.74,816.9,665.22z"/>
		<path class="st2" d="M610.37,580.58l77.2-203.82c1.35-2.71,0.68-6.09-1.35-8.8c-2.03-2.71-4.74-4.06-8.13-4.06h-26.41l-0.68-0.68
			l-90.74-91.42c-2.03-2.03-4.06-2.71-6.77-2.71s-5.42,1.35-6.77,2.71l-35.89,35.89l-35.89-35.89c-4.06-4.06-10.16-4.06-14.22,0
			l-90.74,90.74l-0.68,0.68h-20.99l-23.02-92.09c0,0,0,0,0-0.68c-2.03-5.42-3.39-11.51-6.09-16.93l-16.93,10.16
			c1.35,3.39,2.71,7.45,4.74,12.19l85.32,346.02c4.74,17.61,9.48,36.57,29.79,45.37c-6.77,7.45-10.16,16.93-10.16,27.76
			c0,23.02,18.96,41.98,41.98,41.98s41.98-18.96,41.98-41.98c0-8.13-2.71-15.57-6.77-22.35h68.39c-4.06,6.77-6.77,14.22-6.77,22.35
			c0,23.02,18.96,41.98,41.98,41.98c23.02,0,41.98-18.96,41.98-41.98c0-10.83-4.06-20.99-11.51-28.44c0.68-1.35,0.68-2.03,0.68-3.39
			c0-5.42-4.74-10.16-10.16-10.16H449.89c-29.79,0-33.18-12.87-38.6-35.89l-7.45-30.47h197.73
			C604.96,586.68,609.02,583.97,610.37,580.58z M592.77,672.67c12.19,0,22.35,10.16,22.35,22.35s-10.16,22.35-22.35,22.35
			c-12.19,0-22.35-10.16-22.35-22.35C570.42,682.15,579.9,672.67,592.77,672.67z M453.27,672.67c12.19,0,22.35,10.16,22.35,22.35
			s-10.16,22.35-22.35,22.35s-22.35-10.16-22.35-22.35C430.93,682.15,441.09,672.67,453.27,672.67z M553.49,292.79l70.42,70.42
			h-58.24l-0.68-0.68l-40.63-40.63L553.49,292.79z M467.49,292.79l35.89,35.89c0,0,0,0,0,0.68c0,0,0,0,0.68,0l34.53,34.53H397.07
			L467.49,292.79z M398.42,567.04l-45.37-184.19h310.81l-69.75,184.19H398.42z"/>
		<path class="st1" d="M319.2,254.19l-16.93,10.16c-6.77-14.9-16.25-20.31-34.53-20.31h-50.11v0.68c0,11.51-9.48,21.67-21.67,21.67
			c-11.51,0-21.67-9.48-21.67-21.67c0-11.51,9.48-21.67,21.67-21.67c2.03,0,4.06,0,6.09,0.68h65.01
			C296.85,224.4,311.07,237.26,319.2,254.19z"/>
	</g>
</g>
</svg>
