<svg id="Layer_1" data-name="Layer 1" xmlns="http://www.w3.org/2000/svg" xmlns:xlink="http://www.w3.org/1999/xlink" viewBox="0 0 680.18 932.93"><defs><clipPath id="clip-path"><rect width="680.18" height="932.93" rx="24.72" fill="none"/></clipPath><linearGradient id="linear-gradient" x1="303.16" x2="303.16" y2="591.46" gradientTransform="matrix(1, 0, 0.01, 1, 34.34, 0)" gradientUnits="userSpaceOnUse"><stop offset="0.44" stop-color="#fff"/><stop offset="1" stop-color="#fff" stop-opacity="0"/></linearGradient></defs><title>testimonial-bg</title><g clip-path="url(#clip-path)"><rect width="680.18" height="932.93" rx="24.72" fill="#fff"/><path d="M293,677.25q0,71.41-52.84,121.38t-132.8,50q-82.86,0-145.65-60t-62.83-182.78q0-125.64,37.13-217T28.79,236q55.7-61.38,122.81-92.82t127.09-37.13V240.29Q184.45,263.18,125.9,346T64.49,517.32c3.8-3.79,10.44-7.14,20-10S106.35,503,121.61,503Q193,503,243,548.73T293,677.25Zm488.37,0q0,71.41-52.84,121.38t-132.8,50q-82.87,0-145.65-60T387.22,605.85q0-125.64,37.12-217T517.16,236q55.7-61.38,122.81-92.82t127.09-37.13V240.29Q672.82,263.18,614.26,346t-61.4,171.36c3.79-3.79,10.44-7.14,20-10S594.72,503,610,503q71.35,0,121.38,45.69T781.34,677.25Z" fill="#efefef"/><polygon points="691.76 591.46 -6.91 591.46 -10.91 0 687.76 0 691.76 591.46" fill="url(#linear-gradient)"/></g></svg>